<?xml version="1.0" encoding="utf-8"?>
<!-- Generator: Adobe Illustrator 24.3.0, SVG Export Plug-In . SVG Version: 6.00 Build 0)  -->
<svg version="1.1" id="Layer_1" xmlns="http://www.w3.org/2000/svg" xmlns:xlink="http://www.w3.org/1999/xlink" x="0px" y="0px"
	 viewBox="0 0 489.4 339.3" style="enable-background:new 0 0 489.4 339.3;" xml:space="preserve">
<style type="text/css">
	.st0{enable-background:new    ;}
	.st1{fill:#71BF44;}
	.st2{fill:#FFA610;}
</style>
<g class="st0">
	<path class="st1" d="M10,102.3V37c0-1.1,2.5-1.7,7.6-1.7c0.6,0,1.3,0,2.4,0c1,0,1.7,0,2.1,0c2.6,0,6.4,0,11.5-0.1
		c5.1-0.1,8.9-0.1,11.5-0.1c1.8,0,4.5,0,8,0.1c3.5,0.1,6.3,0.1,8.2,0.1c0.3,0,0.7,0,1.2,0c0.5,0,0.9,0,1.2,0c1.2,0,2,0.2,2.4,0.7
		c0.5,0.4,0.7,1.3,0.7,2.6v17.1c-1.9,0.2-3.9,0.3-5.9,0.3S56.3,56,53.1,56c-3.2,0-5.1,0-5.9,0h-6.7c0,0.6,0,1.5,0,2.7
		c0,1.2,0,2.1,0,2.7v0.7c0.1,0.1,0.1,0.4,0.1,0.7c7.4-0.5,13.6-0.8,18.8-0.8c1.5,0,2.9,0.1,4.1,0.3c1.2,0.2,1.8,0.6,1.8,1v16.3
		c0,1.4-0.3,2.4-0.8,2.9c-0.6,0.5-1.4,0.7-2.6,0.7c-0.3,0-0.7,0-1.4-0.1c-0.7-0.1-1.2-0.1-1.6-0.1C52,83.5,46,83.8,40.5,83.9
		c0,2,0,5,0.1,9s0.1,7,0.1,9v6.1c0,0.9-0.1,1.6-0.3,1.9c-0.2,0.3-0.7,0.5-1.5,0.7c-3.1,0-7.7,0-13.9,0.1c-6.1,0.1-10.7,0.1-13.9,0.1
		c-0.3-0.4-0.5-0.8-0.7-1.3c-0.2-0.5-0.3-0.9-0.4-1.2c-0.1-0.4-0.2-0.9-0.2-1.5s-0.1-1.1-0.1-1.4c0-0.3,0-0.8,0-1.6
		C10,102.9,10,102.5,10,102.3z"/>
	<path class="st1" d="M71.3,107.3v-1.9c0-5.6,0.1-13.8,0.2-24.7c0.1-10.9,0.2-19.1,0.2-24.7V36h56.8v16c0,0.1,0,0.3,0,0.7
		s0,0.7,0,0.8c0,0.1,0,0.4,0,0.7c0,0.3-0.1,0.6-0.2,0.7c-0.1,0.1-0.2,0.3-0.3,0.6s-0.3,0.4-0.5,0.5s-0.5,0.2-0.8,0.3
		c-0.3,0.1-0.7,0.1-1.1,0.1h-1.4c-8.4,0-16.1-0.1-23-0.4c-0.1,0.5-0.2,1.3-0.3,2.4c-0.1,1.1-0.3,2.1-0.3,2.9
		c-0.1,0.8-0.1,1.6-0.1,2.4h23.2c1,0,1.6,0.1,2,0.4c0.3,0.3,0.5,0.7,0.5,1.3c0,0.2,0,0.4,0,0.8c0,0.4,0,0.6,0,0.8
		c0,1.6,0,3.9,0.1,6.9c0.1,3.1,0.1,5.4,0.1,6.9c-0.1,0.7-0.4,1-0.8,1c-0.2,0-0.4-0.1-0.5-0.2c-10.3,0.5-17.9,0.8-22.9,0.8h-1.3v7
		c2.9,0,7.1-0.1,12.6-0.4c5.5-0.3,9.6-0.4,12.3-0.4c2.1,0,3.4,0.5,3.7,1.4v3.7c0,1.6,0,3.9,0.1,6.9c0.1,3.1,0.1,5.4,0.1,6.9
		c0,1.6-0.7,2.4-2,2.4c-1.7,0-4.3,0-7.8,0c-3.5,0-6.2,0-8,0c-4.7,0-11.4,0.1-20.1,0.4c-8.7,0.2-15,0.4-18.9,0.4l-1.4-1.6
		C71.4,108.2,71.3,107.6,71.3,107.3z M81.5,18L92,0.1l9.4,0.2c0.3,0,0.8,0,1.5,0c0.8,0,1.6,0.1,2.5,0.1c0.9,0,1.9,0.1,3,0.1
		c1.1,0,2.1,0.1,3.1,0.2c1,0.1,1.9,0.2,2.7,0.3c0.8,0.1,1.5,0.3,2,0.4c0.5,0.2,0.8,0.3,0.8,0.5l-13.2,14.8c-0.6,0.6-1.1,1.1-1.6,1.5
		c-0.5,0.4-0.9,0.7-1.3,0.9c-0.4,0.2-0.9,0.4-1.5,0.5c-0.7,0.1-1.2,0.2-1.5,0.2c-0.4,0-1.1,0-2.1,0.1c-1,0-1.8,0.1-2.5,0.1H82.6
		L81.5,18z"/>
	<path class="st1" d="M206.4,109.3c-0.7,0.7-2.2,1.1-4.5,1.3c-2.3,0.1-5.1,0.1-8.5-0.1c-3.4-0.2-5.1-0.3-5.4-0.3
		c-2.2,0-3.8,0-4.8-0.1h-4.9c-0.7-0.2-1.3-1.3-1.8-3.2s-1-4.6-1.4-8.2c-0.5-3.6-0.7-5.5-0.8-5.7c-0.1-3.2-0.7-5.3-1.6-6.4
		c-0.9-1-2.6-1.5-5-1.5h-2.1v23.8c-0.1,0.4-0.4,0.7-1,1c-0.6,0.3-1.5,0.4-2.7,0.5c-1.2,0.1-2.2,0.1-3.1,0.1c-0.9,0-2.1,0-3.5,0
		c-1.5,0-2.4,0-2.7,0h-7c-4,0-7,0-9,0.1c-0.5-0.2-0.9-0.4-1.4-0.7V37c0-0.9,1.3-1.4,3.9-1.4h42.6c7.4,0.2,13,2,16.9,5.3
		s5.8,8,5.8,14.1c0,7.9-4,13.6-11.9,17.3c1.5,0.5,2.8,1.1,4,1.9c1.2,0.8,2.1,1.7,2.9,2.6s1.5,2,2.1,3.3c0.6,1.3,1,2.5,1.4,3.7
		c0.3,1.1,0.6,2.5,0.9,4.1s0.4,2.9,0.5,4.1c0.1,1.1,0.2,2.5,0.4,4.1c0.1,1.6,0.3,2.8,0.4,3.7v4.3c0.1,0.5,0.4,1.3,0.9,2.2
		c0.5,0.9,0.8,1.6,1,2.1C206.8,109,206.6,109.3,206.4,109.3z M165.4,56.4c0,2,0,3.4,0,4.3c0,0.9,0.2,2.2,0.5,3.7
		c0.3,1.5,0.8,2.6,1.5,3.3c1.4,0,2.7-0.1,3.9-0.4s2.4-0.8,3.5-1.4c1.1-0.7,2-1.6,2.7-2.9c0.7-1.3,1-2.8,1-4.6c0-1-0.2-1.9-0.5-2.7
		c-0.4-0.8-0.9-1.4-1.6-1.8c-0.7-0.5-1.4-0.8-2-1.1c-0.7-0.3-1.5-0.5-2.4-0.6c-1-0.1-1.7-0.2-2.3-0.2c-0.6,0-1.2,0-2,0h-1.2
		c-0.5,0.2-0.8,0.7-1,1.4S165.4,55,165.4,56.4z"/>
	<path class="st1" d="M210.8,110.4c0.1-9.5,0.4-16.4,0.7-20.8c0-13.7,0.2-27.5,0.6-41.6c-0.1-2.7-0.2-4.8-0.2-6.1v-1.5
		c-0.1-1.4-0.2-2.6-0.2-3.5c0-0.6,0.3-1.2,0.9-1.7c5.3,0.4,13.5,0.6,24.4,0.6c2.6,0,4.4-0.1,5.4-0.2v74.7H210.8z"/>
	<path class="st1" d="M245.5,109.1c2-7.5,4.2-15,6.7-22.7c2.4-7.7,5.5-16.9,9.1-27.6s6.1-18.1,7.4-22.2c0.4-0.7,0.7-1,0.8-1.2h8.2
		c1.9,0,4.8,0,8.5-0.1c3.7-0.1,6.6-0.1,8.5-0.1h8.2c0.5,0,0.9,0,1.2,0c0.3,0,0.7,0.1,1.2,0.1c0.5,0.1,0.8,0.2,1.1,0.3
		c0.3,0.1,0.5,0.3,0.7,0.6c0.2,0.3,0.3,0.6,0.3,0.9l22.5,71.3c0,0.7-0.2,1.1-0.7,1.3s-1.4,0.4-2.7,0.4h-4.5c-1.3,0-3.2,0-5.8,0
		c-2.6,0-4.5,0-5.8,0c-0.4,0-1.2,0-2.4,0.1s-2.2,0.1-3,0c-0.8,0-1.7-0.1-2.7-0.1c-1-0.1-1.8-0.3-2.4-0.5c-0.6-0.3-1-0.6-1.1-1.1
		v-3.2c-0.3-1.6-0.9-3.1-1.7-4.5s-1.7-2.1-2.6-2.1h-16.8l-2.5,10.4c-0.4,0.8-2.2,1.2-5.5,1.2h-3.9c-1.4,0-3.5,0-6.2,0.1
		s-4.9,0.1-6.2,0.1H252c-0.5,0-1.3,0-2.5,0c-1.1,0-2,0-2.6,0C246.6,110.6,246.2,110,245.5,109.1z M279.4,79.5l1.4,2.3h3.2
		c2.6,0,5-0.2,7.2-0.5c2.2-0.3,3.2-0.8,3.2-1.5l-6.3-28.1c-0.6,0-1.4,1.1-2.4,3.3c-1,2.2-1.8,4.7-2.4,7.5L279.4,79.5z"/>
	<path class="st1" d="M363.4,112c-3.8-0.2-7.3-0.5-10.4-1c-3.1-0.5-6-1.3-8.9-2.4s-5.2-2.5-7.2-4.2s-3.5-3.9-4.8-6.6
		c-1.3-2.7-2.1-5.8-2.4-9.3c0-0.6,0.3-1,1-1.1c0.2,0.1,0.5,0.1,1,0.1c2.7,0,6.8-0.1,12.3-0.2c5.5-0.1,9.6-0.2,12.3-0.2
		c0.7,0,1.2,0.2,1.6,0.7s0.7,1,1,1.6s0.5,1.3,0.9,1.9s0.9,1.2,1.8,1.6s1.9,0.7,3.2,0.7c1.6,0,3-0.4,4.2-1.3c1.2-0.9,1.8-2.1,1.8-3.6
		c0-1-0.5-1.9-1.6-2.8c-1-0.8-2.4-1.5-4.1-2.1s-3.3-1-4.9-1.4c-1.5-0.4-3.1-0.7-4.8-1c-1.6-0.3-2.6-0.4-2.8-0.5
		c-7.9-2.1-13.6-4.8-17.1-8c-3.5-3.2-5.2-7.6-5.2-13.1c0-3.9,0.7-7.4,2.1-10.5c1.4-3.1,3.3-5.6,5.6-7.6c2.3-2,5-3.6,8.2-4.9
		s6.3-2.2,9.6-2.8s6.6-0.8,10-0.8c9.1,0,16.4,1.7,21.9,5.1c2,2,3.4,3.5,4.4,4.5s1.8,2.2,2.7,3.6s1.5,2.7,1.8,4s0.6,2.9,0.7,4.9
		l-1.8,1.8c-6.7,0.3-14.2,0.4-22.5,0.4c-1,0-1.9-0.1-2.5-0.3c-0.6-0.2-1.1-0.5-1.3-0.9c-0.2-0.4-0.4-0.7-0.6-1.1s-0.4-0.8-0.6-1.1
		c-0.2-0.4-0.6-0.7-1.1-0.9c-0.6-0.2-1.3-0.3-2.3-0.3c-0.3,0-0.7,0-1.2,0.1s-1.2,0.3-2,0.5c-0.8,0.2-1.4,0.5-2,1s-0.8,1-0.8,1.5
		c0,0.7,0.4,1.4,1.1,2s1.5,1,2.3,1.3c0.8,0.3,1.8,0.5,3,0.9c1.2,0.3,2,0.5,2.2,0.6c7.1,1.8,11.3,2.9,12.7,3.3
		c7.1,2.2,12.2,5.2,15.1,8.8c2.7,3.4,4.1,7.6,4.1,12.7c0,3.1-0.4,5.9-1.2,8.4s-1.8,4.7-3.1,6.4s-2.9,3.3-4.9,4.7s-3.9,2.5-5.9,3.3
		c-2,0.8-4.3,1.5-6.8,2.1c-2.5,0.6-4.9,1-7,1.2S365.9,111.9,363.4,112z"/>
</g>
<g class="st0">
	<path class="st1" d="M0,229.1c2-7.5,4.2-15,6.7-22.7c2.4-7.7,5.5-16.9,9.1-27.6c3.6-10.7,6.1-18.1,7.4-22.2c0.4-0.7,0.7-1,0.8-1.2
		h8.2c1.9,0,4.8,0,8.5-0.1c3.7-0.1,6.6-0.1,8.5-0.1h8.2c0.5,0,0.9,0,1.2,0c0.3,0,0.7,0.1,1.2,0.1c0.5,0.1,0.8,0.2,1.1,0.3
		c0.3,0.1,0.5,0.3,0.7,0.6c0.2,0.3,0.3,0.6,0.3,0.9l22.5,71.3c0,0.7-0.2,1.1-0.7,1.3c-0.5,0.2-1.4,0.4-2.7,0.4h-4.5
		c-1.3,0-3.2,0-5.8,0c-2.6,0-4.5,0-5.8,0c-0.4,0-1.2,0-2.4,0.1c-1.2,0-2.2,0.1-3,0c-0.8,0-1.7-0.1-2.7-0.1c-1-0.1-1.8-0.3-2.4-0.5
		c-0.6-0.3-1-0.6-1.1-1.1v-3.2c-0.3-1.6-0.9-3.1-1.7-4.5c-0.8-1.4-1.7-2.1-2.6-2.1H32.2l-2.5,10.4c-0.4,0.8-2.2,1.2-5.5,1.2h-3.9
		c-1.4,0-3.5,0-6.2,0.1c-2.8,0.1-4.9,0.1-6.2,0.1H6.4c-0.5,0-1.3,0-2.5,0c-1.1,0-2,0-2.6,0C1.1,230.6,0.6,230,0,229.1z M33.9,199.5
		l1.4,2.3h3.2c2.6,0,5-0.2,7.2-0.5c2.2-0.3,3.2-0.8,3.2-1.5l-6.3-28.1c-0.6,0-1.4,1.1-2.4,3.3c-1,2.2-1.8,4.7-2.4,7.5L33.9,199.5z"
		/>
</g>
<g class="st0">
	<path class="st1" d="M76.1,170.6c0-0.6,0-1.5,0.1-2.6c0.1-1.2,0.1-1.9,0.1-2.4c0-0.2,0-0.7-0.1-1.8c-0.1-1-0.1-1.9-0.1-2.6
		c0-3.5,0.3-5.2,1-5.2c0.3,0,0.5,0,0.7,0.1c6.8,0,16.9-0.1,30.2-0.2c13.4-0.2,23.4-0.2,30-0.2c1.7,0,2.7,0.1,3.1,0.4
		s0.7,0.9,0.7,1.7v1.4c0,1.7,0,4.2,0,7.5c0,3.3,0,5.8,0,7.5c0,1.7-0.5,2.5-1.4,2.5c-1.8,0-4.5,0-8.2-0.1c-3.6-0.1-6.3-0.1-8.2-0.1
		v52.3c-0.2,1-0.8,1.5-1.7,1.6c-1.1,0-2.8,0-5,0c-2.2,0-3.8,0-5,0c-0.1,0-0.1,0-0.2,0.1c-1.4,0-3.4,0-6,0c-2.6,0-4.5,0-5.8,0h-2.9
		c-0.7,0.1-1.6,0.1-2.8,0.1l-2-2.3c0-4.9,0.2-12.3,0.5-22.1c0.3-9.8,0.5-17.1,0.5-22.1c0-0.2,0-0.6,0-1.1c0-0.5,0-0.9,0-1.3
		c0-0.3,0-0.7-0.1-1.2s-0.1-0.9-0.2-1.2c-0.1-0.3-0.3-0.6-0.4-0.9c-0.2-0.3-0.4-0.5-0.7-0.7c-0.3-0.1-0.6-0.2-1-0.2h-14
		C76.5,177.1,76.1,174.8,76.1,170.6z"/>
	<path class="st1" d="M145.2,230.4c0.1-9.5,0.4-16.4,0.7-20.8c0-13.7,0.2-27.5,0.6-41.6c-0.1-2.7-0.2-4.8-0.2-6.1v-1.5
		c-0.1-1.4-0.2-2.6-0.2-3.5c0-0.6,0.3-1.2,0.9-1.7c5.3,0.4,13.5,0.6,24.4,0.6c2.6,0,4.4-0.1,5.4-0.2v74.7H145.2z"/>
</g>
<g class="st0">
	<path class="st1" d="M180.6,157.1c0-0.9,0.6-1.4,1.7-1.4c3.2,0,7.8,0,13.8-0.1c6.1-0.1,10.6-0.1,13.6-0.1c0.9,0,1.7,0.5,2.3,1.4
		l8.4,48.6c0.5-3.1,1.4-7.5,2.8-13.2c1.3-5.7,2.2-9.4,2.6-11.3l4.9-24.4c0.3-0.8,6.9-1.2,20-1.2h7.8c0.6,0.2,1,0.8,1.2,1.7
		l-10.9,39.6c-0.2,0.9-0.7,2.8-1.3,5.8c-0.6,3-1.3,5.9-1.9,8.6c-0.6,2.8-1.4,5.6-2.2,8.6c-0.8,3-1.7,5.5-2.6,7.4s-1.8,3.1-2.7,3.4
		c-1.2,0-2.9,0-5.2-0.1c-2.3-0.1-4.1-0.1-5.2-0.1h-3.5c-2.2,0.2-4.6,0.3-7.3,0.4c-2.6,0.1-5.4,0.1-8.4,0.1c-3,0-5.3,0.1-7.1,0.1
		L180.6,157.1z"/>
</g>
<g class="st0">
	<path class="st1" d="M248.3,229.1c2-7.5,4.2-15,6.7-22.7c2.4-7.7,5.5-16.9,9.1-27.6c3.6-10.7,6.1-18.1,7.4-22.2
		c0.4-0.7,0.7-1,0.8-1.2h8.2c1.9,0,4.8,0,8.5-0.1c3.7-0.1,6.6-0.1,8.5-0.1h8.2c0.5,0,0.9,0,1.2,0c0.3,0,0.7,0.1,1.2,0.1
		c0.5,0.1,0.8,0.2,1.1,0.3c0.3,0.1,0.5,0.3,0.7,0.6c0.2,0.3,0.3,0.6,0.3,0.9l22.5,71.3c0,0.7-0.2,1.1-0.7,1.3s-1.4,0.4-2.7,0.4h-4.5
		c-1.3,0-3.2,0-5.8,0c-2.6,0-4.5,0-5.8,0c-0.4,0-1.2,0-2.4,0.1s-2.2,0.1-3,0c-0.8,0-1.7-0.1-2.7-0.1c-1-0.1-1.8-0.3-2.4-0.5
		c-0.6-0.3-1-0.6-1.1-1.1v-3.2c-0.3-1.6-0.9-3.1-1.7-4.5s-1.7-2.1-2.6-2.1h-16.8l-2.5,10.4c-0.4,0.8-2.2,1.2-5.5,1.2h-3.9
		c-1.4,0-3.5,0-6.2,0.1s-4.9,0.1-6.2,0.1h-1.4c-0.5,0-1.3,0-2.5,0c-1.1,0-2,0-2.6,0C249.4,230.6,248.9,230,248.3,229.1z
		 M282.2,199.5l1.4,2.3h3.2c2.6,0,5-0.2,7.2-0.5c2.2-0.3,3.2-0.8,3.2-1.5l-6.3-28.1c-0.6,0-1.4,1.1-2.4,3.3c-1,2.2-1.8,4.7-2.4,7.5
		L282.2,199.5z"/>
	<path class="st1" d="M366.2,232c-3.8-0.2-7.3-0.5-10.4-1c-3.1-0.5-6-1.3-8.9-2.4s-5.2-2.5-7.2-4.2s-3.5-3.9-4.8-6.6
		c-1.3-2.7-2.1-5.8-2.4-9.3c0-0.6,0.3-1,1-1.1c0.2,0.1,0.5,0.1,1,0.1c2.7,0,6.8-0.1,12.3-0.2c5.5-0.1,9.6-0.2,12.3-0.2
		c0.7,0,1.2,0.2,1.6,0.7s0.7,1,1,1.6s0.5,1.3,0.9,1.9s0.9,1.2,1.8,1.6s1.9,0.7,3.2,0.7c1.6,0,3-0.4,4.2-1.3c1.2-0.9,1.8-2.1,1.8-3.6
		c0-1-0.5-1.9-1.6-2.8c-1-0.8-2.4-1.5-4.1-2.1s-3.3-1-4.9-1.4c-1.5-0.4-3.1-0.7-4.8-1c-1.6-0.3-2.6-0.4-2.8-0.5
		c-7.9-2.1-13.6-4.8-17.1-8c-3.5-3.2-5.2-7.6-5.2-13.1c0-3.9,0.7-7.4,2.1-10.5c1.4-3.1,3.3-5.6,5.6-7.6c2.3-2,5-3.6,8.2-4.9
		s6.3-2.2,9.6-2.8s6.6-0.8,10-0.8c9.1,0,16.4,1.7,21.9,5.1c2,2,3.4,3.5,4.4,4.5s1.8,2.2,2.7,3.6s1.5,2.7,1.8,4
		c0.3,1.3,0.6,2.9,0.7,4.9l-1.8,1.8c-6.7,0.3-14.2,0.4-22.5,0.4c-1,0-1.9-0.1-2.5-0.3c-0.6-0.2-1.1-0.5-1.3-0.9
		c-0.2-0.4-0.4-0.7-0.6-1.1s-0.4-0.8-0.6-1.1c-0.2-0.4-0.6-0.7-1.1-0.9c-0.6-0.2-1.3-0.3-2.3-0.3c-0.3,0-0.7,0-1.2,0.1
		s-1.2,0.3-2,0.5c-0.8,0.2-1.4,0.5-2,1s-0.8,1-0.8,1.5c0,0.7,0.4,1.4,1.1,2s1.5,1,2.3,1.3c0.8,0.3,1.8,0.5,3,0.9
		c1.2,0.3,2,0.5,2.2,0.6c7.1,1.8,11.3,2.9,12.7,3.3c7.1,2.2,12.2,5.2,15.1,8.8c2.7,3.4,4.1,7.6,4.1,12.7c0,3.1-0.4,5.9-1.2,8.4
		s-1.8,4.7-3.1,6.4s-2.9,3.3-4.9,4.7s-3.9,2.5-5.9,3.3c-2,0.8-4.3,1.5-6.8,2.1c-2.5,0.6-4.9,1-7,1.2S368.7,231.9,366.2,232z"/>
</g>
<g class="st0">
	<path class="st2" d="M43.9,259.4c0-0.6,0.4-0.9,1.1-0.9c2.1,0,5.1,0,9-0.1c3.9,0,6.9-0.1,8.8-0.1c0.6,0,1.1,0.3,1.5,0.9l5.5,31.6
		c0.3-2,0.9-4.9,1.8-8.6c0.9-3.7,1.4-6.1,1.7-7.3l3.2-15.9c0.2-0.5,4.5-0.8,13-0.8h5.1c0.4,0.1,0.7,0.5,0.8,1.1l-7.1,25.7
		c-0.1,0.6-0.4,1.8-0.8,3.8c-0.4,2-0.8,3.8-1.2,5.6c-0.4,1.8-0.9,3.7-1.4,5.6c-0.5,1.9-1.1,3.6-1.7,4.8c-0.6,1.3-1.2,2-1.7,2.2
		c-0.8,0-1.9,0-3.4-0.1c-1.5-0.1-2.6-0.1-3.4-0.1h-2.3c-1.4,0.1-3,0.2-4.7,0.3c-1.7,0-3.5,0.1-5.4,0.1c-1.9,0-3.5,0.1-4.6,0.1
		L43.9,259.4z"/>
	<path class="st2" d="M97.3,305.1v-1.2c0-3.6,0-9,0.1-16c0.1-7.1,0.1-12.4,0.1-16v-13.1h36.9v10.4c0,0.1,0,0.2,0,0.5s0,0.4,0,0.5
		c0,0.1,0,0.2,0,0.5c0,0.2-0.1,0.4-0.1,0.5c-0.1,0.1-0.1,0.2-0.2,0.4c-0.1,0.2-0.2,0.3-0.3,0.3s-0.3,0.1-0.5,0.2
		c-0.2,0.1-0.4,0.1-0.7,0.1h-0.9c-5.5,0-10.5-0.1-15-0.3c0,0.3-0.1,0.9-0.2,1.6c-0.1,0.7-0.2,1.3-0.2,1.9c-0.1,0.5-0.1,1.1-0.1,1.6
		h15.1c0.6,0,1.1,0.1,1.3,0.3c0.2,0.2,0.3,0.4,0.3,0.8c0,0.1,0,0.3,0,0.5c0,0.2,0,0.4,0,0.5c0,1,0,2.5,0.1,4.5
		c0.1,2,0.1,3.5,0.1,4.5c-0.1,0.4-0.2,0.6-0.5,0.6c-0.1,0-0.2,0-0.3-0.1c-6.7,0.3-11.6,0.5-14.9,0.5h-0.8v4.6c1.9,0,4.6-0.1,8.2-0.3
		c3.6-0.2,6.2-0.3,8-0.3c1.4,0,2.2,0.3,2.4,0.9v2.4c0,1,0,2.5,0.1,4.5c0,2,0.1,3.5,0.1,4.5c0,1.1-0.4,1.6-1.3,1.6
		c-1.1,0-2.8,0-5.1,0c-2.3,0-4,0-5.2,0c-3,0-7.4,0.1-13.1,0.2c-5.7,0.2-9.8,0.2-12.3,0.3l-0.9-1C97.3,305.6,97.3,305.2,97.3,305.1z"
		/>
	<path class="st2" d="M185,306.3c-0.5,0.5-1.4,0.7-2.9,0.8c-1.5,0.1-3.3,0.1-5.5-0.1c-2.2-0.1-3.3-0.2-3.5-0.2c-1.4,0-2.5,0-3.1-0.1
		h-3.2c-0.5-0.1-0.9-0.8-1.2-2.1c-0.3-1.2-0.6-3-0.9-5.3c-0.3-2.3-0.5-3.5-0.5-3.7c-0.1-2.1-0.4-3.5-1-4.1c-0.6-0.7-1.7-1-3.2-1
		h-1.4v15.5c0,0.3-0.3,0.5-0.7,0.6c-0.4,0.2-1,0.3-1.7,0.3s-1.4,0.1-2,0.1c-0.6,0-1.3,0-2.3,0c-1,0-1.5,0-1.7,0h-4.6
		c-2.6,0-4.5,0-5.8,0.1c-0.3-0.1-0.6-0.3-0.9-0.4v-47.4c0-0.6,0.8-0.9,2.5-0.9h27.7c4.8,0.1,8.5,1.3,11,3.4c2.5,2.2,3.8,5.2,3.8,9.1
		c0,5.1-2.6,8.9-7.7,11.2c1,0.3,1.8,0.7,2.6,1.2c0.8,0.5,1.4,1.1,1.9,1.7c0.5,0.6,1,1.3,1.3,2.2c0.4,0.8,0.7,1.6,0.9,2.4
		c0.2,0.7,0.4,1.6,0.6,2.6c0.2,1,0.3,1.9,0.3,2.6c0.1,0.7,0.1,1.6,0.2,2.7c0.1,1,0.2,1.8,0.2,2.4v2.8c0.1,0.3,0.3,0.8,0.6,1.4
		c0.3,0.6,0.5,1.1,0.6,1.4C185.3,306.1,185.2,306.3,185,306.3z M158.4,271.9c0,1.3,0,2.2,0,2.8c0,0.6,0.1,1.4,0.3,2.4
		c0.2,1,0.5,1.7,1,2.1c0.9,0,1.7-0.1,2.5-0.3c0.8-0.2,1.6-0.5,2.3-0.9c0.7-0.4,1.3-1.1,1.8-1.9c0.4-0.8,0.7-1.8,0.7-3
		c0-0.7-0.1-1.2-0.3-1.7c-0.2-0.5-0.6-0.9-1-1.2c-0.4-0.3-0.9-0.5-1.3-0.7c-0.4-0.2-1-0.3-1.6-0.4c-0.6-0.1-1.1-0.1-1.5-0.1
		c-0.4,0-0.8,0-1.3,0h-0.8c-0.3,0.1-0.5,0.4-0.6,0.9C158.4,270.3,158.4,271,158.4,271.9z"/>
	<path class="st2" d="M183.8,306.2c1.3-4.8,2.8-9.8,4.3-14.8c1.6-5,3.6-11,5.9-17.9c2.4-7,4-11.8,4.8-14.4c0.3-0.4,0.4-0.7,0.5-0.8
		h5.3c1.2,0,3.1,0,5.5-0.1c2.4,0,4.3-0.1,5.5-0.1h5.3c0.3,0,0.6,0,0.8,0c0.2,0,0.5,0,0.8,0.1c0.3,0,0.5,0.1,0.7,0.2
		c0.2,0.1,0.3,0.2,0.5,0.4c0.1,0.2,0.2,0.4,0.2,0.6l14.6,46.4c0,0.4-0.2,0.7-0.5,0.9c-0.3,0.2-0.9,0.2-1.7,0.2h-2.9
		c-0.8,0-2.1,0-3.8,0c-1.7,0-2.9,0-3.8,0c-0.3,0-0.8,0-1.5,0c-0.8,0-1.4,0-2,0c-0.5,0-1.1,0-1.8-0.1c-0.6-0.1-1.2-0.2-1.6-0.3
		c-0.4-0.2-0.6-0.4-0.7-0.7v-2.1c-0.2-1.1-0.6-2-1.1-2.9c-0.5-0.9-1.1-1.3-1.7-1.3h-10.9l-1.7,6.7c-0.2,0.5-1.4,0.8-3.6,0.8H197
		c-0.9,0-2.3,0-4.1,0.1c-1.8,0.1-3.2,0.1-4.1,0.1H188c-0.3,0-0.9,0-1.6,0c-0.7,0-1.3,0-1.7,0C184.5,307.2,184.2,306.8,183.8,306.2z
		 M216.8,254.7c-1.2,0-3-0.4-5.3-1.1c-2.3-0.7-3.9-1.1-5-1.1c-0.4,0-0.6,0.3-0.7,0.8c-0.1,0.6-0.2,0.8-0.4,0.8
		c-0.5,0-1.3,0.1-2.3,0.1c-1,0-1.7,0-2,0H197c-0.4-0.2-0.6-0.5-0.6-1.1c0-3.7,0.8-6.5,2.5-8.3c1.7-1.8,4.1-2.7,7.1-2.7
		c1,0,2.5,0.2,4.4,0.8h2.2c0.3,0.1,0.6,0.2,1,0.5c0.4,0.3,0.7,0.5,0.9,0.5h1.1c0,0.2,0.1,0.3,0.1,0.3c0.2-0.3,0.3-0.6,0.3-1l1.1-0.9
		h8c0.2,0,0.4,0.1,0.6,0.2c0.2,0.1,0.3,0.3,0.3,0.4c0,0.1,0.1,0.3,0.2,0.6C225.9,250.9,222.8,254.7,216.8,254.7z M205.8,286.9
		l0.9,1.5h2.1c1.7,0,3.2-0.1,4.6-0.3c1.4-0.2,2.1-0.5,2.1-1l-4.1-18.3c-0.4,0-0.9,0.7-1.5,2.2c-0.6,1.4-1.2,3.1-1.6,4.9L205.8,286.9
		z"/>
	<path class="st2" d="M238,282.3v-3.5c0.2-3,0.9-5.7,1.9-8.1c1.1-2.4,2.4-4.5,4.1-6.2c1.7-1.7,3.6-3.1,5.8-4.2
		c2.2-1.2,4.5-2,6.8-2.5c2.4-0.5,4.8-0.8,7.4-0.8c1.4,0,2.9,0.1,4.4,0.3c1.5,0.2,3.1,0.6,4.8,1.1s3.3,1.3,4.9,2.2
		c1.6,1,2.8,2.1,3.9,3.5c2.1,2.6,3.6,5.2,4.6,8c0.9,2.8,1.4,5.9,1.4,9.3c0.1,7.2-1.5,12.9-4.7,17.3l-1.4,1.9c-1.2,1.7-3,3.1-5.3,4.2
		s-4.6,1.9-6.9,2.3c-2.3,0.4-4.6,0.7-6.9,0.7c-2.7,0-5.2-0.3-7.6-0.8c-2.3-0.6-4.3-1.3-6-2.2c-1.7-0.9-3.2-2.1-4.5-3.4
		c-1.3-1.3-2.4-2.7-3.2-4.2c-0.8-1.5-1.5-3.1-2.1-4.8c-0.5-1.7-0.9-3.4-1.1-5.1C238.2,285.8,238,284.1,238,282.3z M263.3,269.8
		c-0.9,0-1.6,0.2-2.3,0.6c-0.7,0.4-1.2,0.9-1.7,1.5c-0.4,0.6-0.8,1.3-1.1,2.3s-0.6,1.8-0.7,2.6c-0.1,0.8-0.3,1.7-0.3,2.9
		c-0.1,1.2-0.1,2.1-0.1,2.7s0,1.5,0,2.5c0,1,0,1.9,0.1,2.8c0.1,0.9,0.2,1.8,0.5,2.8c0.2,1,0.6,1.8,1,2.6c0.4,0.7,0.9,1.3,1.6,1.8
		c0.7,0.5,1.5,0.8,2.4,0.8c0.9,0,1.8-0.2,2.5-0.5c0.7-0.3,1.3-0.7,1.8-1.2c0.5-0.5,0.9-1.1,1.2-1.9c0.3-0.8,0.6-1.6,0.8-2.3
		c0.2-0.7,0.3-1.7,0.4-2.8c0.1-1.1,0.2-2,0.2-2.8c0-0.8,0-1.8,0-3c0-0.9,0-1.7-0.1-2.5c-0.1-0.8-0.1-1.6-0.3-2.5
		c-0.1-0.9-0.3-1.8-0.6-2.5c-0.3-0.7-0.7-1.4-1.1-2s-1-1.1-1.7-1.4C265,269.9,264.2,269.8,263.3,269.8z"/>
	<path class="st2" d="M353.5,272.1c0,1.8-0.3,3.5-0.8,5c-0.5,1.5-1.2,2.9-2,3.9c-0.8,1.1-1.8,2.2-3,3.3c-1.2,1.1-2.4,2.1-3.5,2.9
		c-1.1,0.8-2.4,1.8-3.8,2.9c-1.4,1.1-2.7,2.2-3.7,3.2c1.4,0,3.6,0,6.6-0.1c3-0.1,5.2-0.1,6.8-0.1c1.5,0,2.4,0.5,3,1.5
		c0.5,1,0.8,2.4,0.8,4.2c0,0.6,0,1.5-0.1,2.9c-0.1,1.4-0.1,2.4-0.1,3.1v0.6c0,0.3,0,0.6-0.1,0.7c0,0.2-0.2,0.3-0.3,0.5
		c-0.2,0.1-0.5,0.3-0.9,0.3h-2.3c-1.6,0-5-0.1-10.3-0.3c-8.5,0-17.7,0.2-27.7,0.5v-0.6c-0.3-0.2-0.6-0.6-0.8-1.1
		c-0.2-0.6-0.3-1.2-0.3-1.9v-9.3c0-0.5,0.7-1.2,2.2-2.2c5.8-3.9,10-6.8,12.5-8.6l2-1.5c4.6-3.6,6.9-6.7,6.9-9.5
		c0-0.9-0.3-1.6-0.8-2.1c-0.5-0.5-1.2-0.8-2.1-0.8c-0.7,0-1.3,0.2-1.8,0.5s-0.7,0.7-0.9,1.2c-0.2,0.5-0.3,1-0.4,1.4
		c-0.1,0.5-0.2,0.9-0.4,1.3c-0.2,0.4-0.5,0.6-0.8,0.7h-14.7c-1.2,0-1.8-0.3-1.8-1c0.3-3,1-5.7,2.2-7.9c1.1-2.2,2.7-3.9,4.6-5.2
		s4.1-2.2,6.4-2.8c2.4-0.6,5.1-0.9,8.2-0.9c2.2,0,4.3,0.2,6.3,0.5c2,0.3,3.9,0.9,5.7,1.7s3.4,1.7,4.7,2.9c1.3,1.1,2.4,2.5,3.2,4.2
		C353.1,268.1,353.5,270,353.5,272.1z"/>
	<path class="st2" d="M377.8,308c-2.4,0-4.6-0.2-6.5-0.7s-3.7-1.1-5.1-1.9c-1.4-0.8-2.7-1.8-3.8-3c-1.1-1.2-2-2.5-2.8-3.9
		c-0.7-1.4-1.3-2.9-1.9-4.7c-0.5-1.8-0.9-3.5-1.2-5.3c-0.3-1.7-0.5-3.7-0.6-5.8c0-16.1,7.4-24.7,22.2-25.8c2.6,0,4.9,0.3,7,0.9
		c2.1,0.6,3.9,1.4,5.4,2.3c1.5,1,2.8,2.2,4,3.6s2.1,2.9,2.8,4.4s1.3,3.2,1.7,5c0.4,1.8,0.8,3.5,0.9,5.1c0.2,1.6,0.3,3.3,0.3,5.1
		c0,4-0.6,7.6-1.7,10.8c-1.2,3.2-2.8,5.7-4.8,7.7c-2,2-4.4,3.5-7.1,4.6C383.9,307.5,381,308,377.8,308z M372.9,284.1
		c0,0.8,0,1.6,0,2.2s0.1,1.4,0.1,2.3c0.1,0.9,0.2,1.7,0.3,2.4c0.1,0.7,0.3,1.4,0.6,2.1c0.2,0.7,0.5,1.4,0.9,1.8
		c0.3,0.5,0.8,0.9,1.3,1.2s1.1,0.5,1.8,0.5c0.7,0,1.4-0.2,2-0.5c0.6-0.3,1.1-0.7,1.4-1.1c0.4-0.4,0.7-1.1,0.9-1.8
		c0.3-0.8,0.4-1.5,0.6-2.1c0.1-0.6,0.2-1.4,0.3-2.4c0.1-1,0.1-1.7,0.1-2.2c0-0.5,0-1.2,0-2.1c0-0.2,0-0.3,0-0.4
		c0.1-0.7,0.1-1.8,0.1-3.4c0-0.1,0-0.5,0-1.3c0-0.7,0-1.3,0-1.8s0-1.1-0.1-2c-0.1-0.8-0.1-1.5-0.3-2.1c-0.1-0.5-0.3-1.2-0.5-1.9
		c-0.2-0.7-0.5-1.3-0.9-1.7c-0.3-0.4-0.8-0.8-1.3-1c-0.5-0.3-1.1-0.4-1.8-0.4c-0.6,0-1.1,0.1-1.5,0.2c-0.5,0.1-0.9,0.4-1.2,0.7
		c-0.3,0.3-0.7,0.7-0.9,1.1c-0.3,0.4-0.5,0.8-0.7,1.5c-0.2,0.6-0.4,1.2-0.5,1.6c-0.1,0.5-0.3,1.1-0.3,1.9c-0.1,0.8-0.2,1.4-0.2,1.9
		c-0.1,0.5-0.1,1.2-0.1,2.1c0,0.9,0,1.6,0,2c0,0.4,0,1.1,0,2C372.9,283.8,372.9,284,372.9,284.1z"/>
	<path class="st2" d="M446.1,272.1c0,1.8-0.3,3.5-0.8,5c-0.5,1.5-1.2,2.9-2,3.9c-0.8,1.1-1.8,2.2-3,3.3c-1.2,1.1-2.4,2.1-3.5,2.9
		c-1.1,0.8-2.4,1.8-3.8,2.9c-1.4,1.1-2.7,2.2-3.7,3.2c1.4,0,3.6,0,6.6-0.1c3-0.1,5.2-0.1,6.8-0.1c1.5,0,2.4,0.5,3,1.5
		c0.5,1,0.8,2.4,0.8,4.2c0,0.6,0,1.5-0.1,2.9c-0.1,1.4-0.1,2.4-0.1,3.1v0.6c0,0.3,0,0.6-0.1,0.7c0,0.2-0.2,0.3-0.3,0.5
		c-0.2,0.1-0.5,0.3-0.9,0.3h-2.3c-1.6,0-5-0.1-10.3-0.3c-8.5,0-17.7,0.2-27.7,0.5v-0.6c-0.3-0.2-0.6-0.6-0.8-1.1
		c-0.2-0.6-0.3-1.2-0.3-1.9v-9.3c0-0.5,0.7-1.2,2.2-2.2c5.8-3.9,10-6.8,12.5-8.6l2-1.5c4.6-3.6,6.9-6.7,6.9-9.5
		c0-0.9-0.3-1.6-0.8-2.1c-0.5-0.5-1.2-0.8-2.1-0.8c-0.7,0-1.3,0.2-1.8,0.5s-0.7,0.7-0.9,1.2c-0.2,0.5-0.3,1-0.4,1.4
		c-0.1,0.5-0.2,0.9-0.4,1.3c-0.2,0.4-0.5,0.6-0.8,0.7h-14.7c-1.2,0-1.8-0.3-1.8-1c0.3-3,1-5.7,2.2-7.9c1.1-2.2,2.7-3.9,4.6-5.2
		s4.1-2.2,6.4-2.8c2.4-0.6,5.1-0.9,8.2-0.9c2.2,0,4.3,0.2,6.3,0.5c2,0.3,3.9,0.9,5.7,1.7s3.4,1.7,4.7,2.9c1.3,1.1,2.4,2.5,3.2,4.2
		C445.7,268.1,446.1,270,446.1,272.1z"/>
	<path class="st2" d="M454.2,275.7c0-0.2,0-0.6,0-1c0-3.4,0.1-5.5,0.3-6.3c0.2-0.7,0.6-1.3,1.4-1.8c0.2-0.1,0.6-0.3,1.2-0.6l1.6-0.9
		c0.9-0.4,1.9-0.8,2.9-1.3c1-0.5,2.3-1.3,3.8-2.3c1.5-1.1,2.6-2.1,3.2-3c5.1,0.1,8.9,0.1,11.4,0.1c1.1,0,1.9,0,2.5-0.1
		c0.2,0,0.3,0.1,0.4,0.2c0.1,0.1,0.2,0.2,0.2,0.5c0,0.2,0.1,0.5,0.1,0.7c0,0.2,0,0.6,0,1v16.9c0,3.2,0.1,7.9,0.2,14.1
		s0.2,11,0.2,14.2c-0.1,0.8-1.6,1.1-4.6,1.1c-0.4,0-1,0-1.7,0c-0.7,0-1.2,0-1.5,0c-0.6,0-1.4,0-2.5,0c-1.1,0-1.9,0-2.4,0
		c-1.3,0-3.3,0-5.9-0.1l-0.8-1.1c-0.2-0.2-0.3-0.7-0.3-1.3c0-3.2,0-7.9,0.1-14v-13.8c-3.1,2.1-6,3.5-8.7,4.3c-0.4,0-0.6-0.1-0.8-0.2
		s-0.3-0.4-0.3-0.7V275.7z"/>
</g>
</svg>
