<?xml version="1.0" encoding="utf-8"?>
<!-- Generator: Adobe Illustrator 24.3.0, SVG Export Plug-In . SVG Version: 6.00 Build 0)  -->
<svg version="1.1" id="Layer_1" xmlns="http://www.w3.org/2000/svg" xmlns:xlink="http://www.w3.org/1999/xlink" x="0px" y="0px"
	 viewBox="0 0 143.2 128" style="enable-background:new 0 0 143.2 128;" xml:space="preserve">
<style type="text/css">
	.st0{fill-rule:evenodd;clip-rule:evenodd;fill:#D0D5DA;}
	.st1{fill:#D0D5DA;}
</style>
<g>
	<g>
		<path class="st0" d="M103.6,0h-80c-8.8,0-16,7.2-16,16v96c0,8.8,7.2,16,16,16h44v-8h-44c-4.4,0-8-3.6-8-8V16c0-4.4,3.6-8,8-8h80
			c4.4,0,8,3.6,8,8v47l8-8V16C119.6,7.2,112.4,0,103.6,0z"/>
	</g>
</g>
<path class="st1" d="M133.3,72l-5.7-5.7c-1.6-1.6-3.6-2.3-5.7-2.3s-4.1,0.8-5.7,2.3l-34.3,34.3c-1.6,1.6-6.3,7.6-6.3,9.7l-4,17.7
	l17.7-4c0,0,8.1-4.8,9.7-6.3l34.3-34.3C136.4,80.2,136.4,75.1,133.3,72z M96.1,114.8c-0.5,0.4-2,1.5-3.9,2.7l-10.4-10.4
	c1.1-1.5,2.2-2.9,3-3.6l25.8-25.8L121.9,89L96.1,114.8z"/>
<path class="st1" d="M95.6,32h-64v-8h64V32z"/>
<path class="st1" d="M95.6,48h-64v-8h64V48z"/>
<path class="st1" d="M95.6,64h-64v-8h64V64z"/>
<path class="st1" d="M63.6,80h-32v-8h32V80z"/>
</svg>
