<?xml version="1.0" encoding="utf-8"?>
<!-- Generator: Adobe Illustrator 24.3.0, SVG Export Plug-In . SVG Version: 6.00 Build 0)  -->
<svg version="1.1" id="Layer_1" xmlns="http://www.w3.org/2000/svg" xmlns:xlink="http://www.w3.org/1999/xlink" x="0px" y="0px"
	 viewBox="0 0 1612.2 1282.5" style="enable-background:new 0 0 1612.2 1282.5;" xml:space="preserve">
<style type="text/css">
	.home{fill:#D0D5DA;}
</style>
<path class="home" d="M1382.1,738.5v480c0,17.3-6.3,32.3-19,45s-27.7,19-45,19h-384v-384h-256v384h-384c-17.3,0-32.3-6.3-45-19
	s-19-27.7-19-45v-480c0-0.7,0.2-1.7,0.5-3s0.5-2.3,0.5-3l575-474l575,474C1381.8,733.8,1382.1,735.8,1382.1,738.5z M1605.1,669.5
	l-62,74c-5.3,6-12.3,9.7-21,11h-3c-8.7,0-15.7-2.3-21-7l-692-577l-692,577c-8,5.3-16,7.7-24,7c-8.7-1.3-15.7-5-21-11l-62-74
	c-5.3-6.7-7.7-14.5-7-23.5s4.3-16.2,11-21.5l719-599c21.3-17.3,46.7-26,76-26s54.7,8.7,76,26l244,204v-195c0-9.3,3-17,9-23
	s13.7-9,23-9h192c9.3,0,17,3,23,9s9,13.7,9,23v408l219,182c6.7,5.3,10.3,12.5,11,21.5S1610.4,662.8,1605.1,669.5z"/>
</svg>
