<?xml version="1.0" encoding="utf-8"?>
<!-- Generator: Adobe Illustrator 24.3.0, SVG Export Plug-In . SVG Version: 6.00 Build 0)  -->
<svg version="1.1" id="Layer_1" xmlns="http://www.w3.org/2000/svg" xmlns:xlink="http://www.w3.org/1999/xlink" x="0px" y="0px"
	 viewBox="0 0 512 512" style="enable-background:new 0 0 512 512;" xml:space="preserve">
<style type="text/css">
	.st0{fill:#D0D5DA;stroke:#D0D5DA;stroke-width:8;stroke-miterlimit:10;}
	.st1{fill:#D0D5DA;stroke:#D0D5DA;stroke-miterlimit:10;}
</style>
<g transform="translate(0.000000,512.000000) scale(0.100000,-0.100000)">
	<path class="st0" d="M1945,4935l-25-24v-376v-375h-855H209l-24-25l-25-24V2160V209l25-24l24-25h1471h1471l24,25l25,24v376v375h855
		h856l24,25l25,24v1951v1951l-25,24l-24,25H3440H1969L1945,4935z M4800,2960V1120h-800h-800v1493c0,1398-2,1493-18,1514
		c-9,11-217,164-462,338s-449,321-454,326c-6,5,504,9,1262,9h1272V2960z M2470,4447c201-143,372-266,380-273c12-12-47-14-378-14
		h-392v281c0,221,3,279,13,273C2099,4710,2269,4590,2470,4447z M3040,2160V320H1680H320v1840v1840h1360h1360V2160z"/>
	<path class="st0" d="M3465,4535l-25-24v-271v-271l25-24l24-25h511h511l24,25l25,24v271v271l-25,24l-24,25h-511h-511L3465,4535z
		 M4400,4240v-160h-400h-400v160v160h400h400V4240z"/>
	<path class="st0" d="M3440,3680v-80h80h80v80v80h-80h-80V3680z"/>
	<path class="st0" d="M3760,3680v-80h400h400v80v80h-400h-400V3680z"/>
	<path class="st0" d="M3440,3360v-80h560h560v80v80h-560h-560V3360z"/>
	<path class="st0" d="M3440,3040v-80h560h560v80v80h-560h-560V3040z"/>
	<path class="st0" d="M3465,2615l-25-24v-271v-271l25-24l24-25h511h511l24,25l25,24v271v271l-25,24l-24,25h-511h-511L3465,2615z
		 M4400,2320v-160h-400h-400v160v160h400h400V2320z"/>
	<path class="st0" d="M3440,1760v-80h80h80v80v80h-80h-80V1760z"/>
	<path class="st0" d="M3760,1760v-80h400h400v80v80h-400h-400V1760z"/>
	<path class="st0" d="M3440,1440v-80h560h560v80v80h-560h-560V1440z"/>
	<path class="st0" d="M665,3655l-25-24v-831v-831l25-24l24-25h991h991l24,25l25,24v831v831l-25,24l-24,25h-991H689L665,3655z
		 M2560,3018v-502l-183,182c-165,164-187,182-217,182s-52-18-217-182l-183-182l-223,222c-197,196-227,222-255,222
		c-27,0-65-28-240-177c-114-98-215-184-225-192c-16-13-17,12-17,458v471h880h880V3018z M1866,2190c12,0,104,94,104,107
		c0,4-21,29-47,55l-48,48l143,143l142,142l200-200l200-200v-102v-103h-880H800v143l1,142l237,202l237,203l290-290
		C1725,2320,1860,2190,1866,2190z"/>
	<path class="st0" d="M1040,3280v-80h80h80v80v80h-80h-80V3280z"/>
	<path class="st1" d="M1680,3347c-49-16-133-102-148-153c-28-94-8-169,63-239c102-103,243-101,338,5c90,100,90,220,0,320
		C1868,3352,1775,3377,1680,3347z M1815,3175c50-49,15-135-55-135c-41,0-80,39-80,80s39,80,80,80C1779,3200,1800,3191,1815,3175z"/>
	<path class="st0" d="M2240,3120v-80h80h80v80v80h-80h-80V3120z"/>
	<path class="st0" d="M585,1335l-25-24V960V609l25-24l24-25h351h351l24,25l25,24v351v351l-25,24l-24,25H960H609L585,1335z M1200,960
		V720H960H720v240v240h240h240V960z"/>
	<path class="st0" d="M1520,1280v-80h80h80v80v80h-80h-80V1280z"/>
	<path class="st0" d="M1840,1280v-80h480h480v80v80h-480h-480V1280z"/>
	<path class="st0" d="M1520,960v-80h640h640v80v80h-640h-640V960z"/>
	<path class="st0" d="M1520,640v-80h640h640v80v80h-640h-640V640z"/>
</g>
</svg>
