<?xml version="1.0" encoding="utf-8"?>
<!-- Generator: Adobe Illustrator 24.3.0, SVG Export Plug-In . SVG Version: 6.00 Build 0)  -->
<svg version="1.1" id="Layer_1" xmlns="http://www.w3.org/2000/svg" xmlns:xlink="http://www.w3.org/1999/xlink" x="0px" y="0px"
	 viewBox="0 0 408.3 49.1" style="enable-background:new 0 0 408.3 49.1;" xml:space="preserve">
<style type="text/css">
	.st0{fill:#FFA610;}
</style>
<g transform="translate(0.000000,500.000000) scale(0.100000,-0.100000)">
	<path class="st0" d="M371.9,4970c-10-28-10-30,10-30c14,0,28,11,39,30l17,30h-27C389.9,5000,380.9,4993,371.9,4970z"/>
	<path class="st0" d="M78.9,4740v-180h40h40v65v65h45c45,0,45,0,45,34s-1,35-42,38c-43,3-43,3-46,46l-3,42h50h51v35v35h-90h-90
		C78.9,4920,78.9,4740,78.9,4740z"/>
	<path class="st0" d="M288.9,4740v-180h96h95l-3,33c-3,31-4,32-55,35l-53,3v40v39h45c45,0,45,0,45,35s0,35-45,35s-45,0-45,34v35
		l53,3c51,3,52,4,55,36l3,32h-95h-96V4740z"/>
	<path class="st0" d="M508.9,4741v-181h40h39l3,68l3,67l25-65c26-65,26-65,68-68c23-2,42-1,42,1s-11,32-25,66l-26,62l21,26
		c28,36,29,140,1,174c-17,21-29,24-105,28l-86,3C508.9,4922,508.9,4741,508.9,4741z M636.9,4803c-3-41-6-48-25-51c-21-3-23,0-23,47
		c0,48,2,51,26,51S639.9,4848,636.9,4803z"/>
	<path class="st0" d="M758.9,4740v-180h40h40v180v180h-40h-40V4740z"/>
	<path class="st0" d="M933.9,4898c-10-43-65-321-65-330c0-4,16-8,35-8c30,0,35,4,41,28c11,49,13,52,48,52c32,0,35-2,41-40
		c7-38,8-40,45-40h38l-8,38c-5,20-21,101-35,180l-27,142h-54C945.9,4920,938.9,4917,933.9,4898z M1007.9,4728c1-12-6-18-20-18
		c-19,0-20,4-13,48c3,26,9,52,13,57C992.9,4824,1006.9,4766,1007.9,4728z"/>
	<path class="st0" d="M1172.9,4909c-41-20-56-91-32-143c6-14,35-40,65-56c43-25,54-35,51-53c-3-20-9-22-61-22l-58,1l3-36l3-35l68-3
		c63-3,69-1,97,27c22,22,30,39,30,66c0,51-13,70-76,110c-44,28-55,40-52,58c3,20,8,22,56,21l53-2l-3,37l-3,36l-60,2
		C1220.9,4918,1183.9,4914,1172.9,4909z"/>
	<path d="M1468.9,4740v-180h90h90v35v35h-50h-50v40v40h46c45,0,45,0,42,33c-3,30-6,32-45,35c-42,3-43,4-43,38v34h50h50v35v35h-90
		h-90V4740z"/>
	<path d="M1688.9,4740v-180h35h35l1,98v97l20-53c20-50,23-53,52-50c26,3,33,9,46,48l16,45l3-92l3-93h39h40v180v180h-43h-42l-29-85
		c-16-47-32-85-35-85c-4,0-19,38-35,85l-29,85h-38h-39V4740z"/>
	<path class="st0" d="M2168.9,4917c0-2-13-69-29-148s-31-159-34-176c-6-33-6-33,33-33c36,0,40,3,40,24c0,44,10,56,46,56
		c32,0,34-2,40-40c6-39,8-40,45-40c36,0,39,2,34,23c-3,12-17,83-31,157c-38,200-28,180-90,180C2192.9,4920,2168.9,4918,2168.9,4917z
		 M2236.9,4763c9-52,9-53-15-53c-22,0-24,3-19,30C2223.9,4849,2221.9,4848,2236.9,4763z"/>
	<path class="st0" d="M2378.9,4740v-180h85h85v35c0,35,0,35-44,35h-43l-7,46c-3,26-6,91-6,145v99h-35h-35V4740z"/>
	<path class="st0" d="M2597.9,4891c-29-29-29-31-29-145c0-63,5-126,11-139c15-33,49-47,114-47h55v34c0,34-1,35-47,38l-48,3v105v105
		l48,3c46,3,47,4,47,38v34h-61C2633.9,4920,2623.9,4917,2597.9,4891z"/>
	<path class="st0" d="M2838.9,4917c0-2-16-82-35-177s-35-175-35-177s18-3,40-3c36,0,40,3,40,24c0,44,10,56,46,56c32,0,34-2,40-40
		c6-39,8-40,45-40c36,0,39,2,34,23c-3,12-17,83-31,157c-38,200-28,180-90,180C2862.9,4920,2838.9,4919,2838.9,4917z M2906.9,4763
		c9-52,9-53-15-53c-22,0-24,3-19,30C2893.9,4849,2891.9,4848,2906.9,4763z"/>
	<path class="st0" d="M3048.9,4741v-181h35h35v103l1,102l40-102l41-103h39h39v180v180h-40h-39l-3-92l-3-92l-35,89
		c-35,89-36,90-73,93l-37,3V4741z"/>
	<path class="st0" d="M3318.9,4740v-180h90h90v35v35h-50h-50v40v40h45c45,0,45,0,45,35s0,35-45,35s-45,0-45,35v35h50h50v35v35h-90
		h-90V4740z"/>
	<path class="st0" d="M3538.9,4740v-180h40h39l3,93l3,92l35-92l34-93h38h38v180v180h-41h-42l5-100l5-101l-39,101l-40,100h-39h-39
		V4740z"/>
	<path class="st0" d="M3863.9,4908c-6-21-65-320-65-335c0-8,13-13,35-13c33,0,35,2,41,40s8,40,44,40s38-2,44-40s8-40,41-40
		c43,0,43-9,2,195l-33,160l-52,3C3884.9,4920,3866.9,4917,3863.9,4908z M3932.9,4758c7-44,5-48-13-48c-23,0-25,11-14,73
		C3912.9,4830,3924.9,4820,3932.9,4758z"/>
</g>
</svg>
