<?xml version="1.0" encoding="utf-8"?>
<!-- Generator: Adobe Illustrator 24.3.0, SVG Export Plug-In . SVG Version: 6.00 Build 0)  -->
<svg version="1.1" id="Layer_1" xmlns="http://www.w3.org/2000/svg" xmlns:xlink="http://www.w3.org/1999/xlink" x="0px" y="0px"
	 viewBox="0 0 424.3 421.8" style="enable-background:new 0 0 424.3 421.8;" xml:space="preserve">
<style type="text/css">
	.st0{fill:#D0D5DA;stroke:#D0D5DA;stroke-width:11;stroke-miterlimit:10;}
</style>
<g transform="translate(0.000000,512.000000) scale(0.100000,-0.100000)">
	<path class="st0" d="M1535,5058.4c-638-61-1199-509-1403-1120c-196-585-45-1217,398-1662c236-238,525-392,857-459
		c162-32,434-32,596,0c330,66,618,220,855,457c398,398,565,955,447,1496c-121,557-546,1029-1089,1209c-140,47-230,66-376,80
		C1698,5070.4,1659,5070.4,1535,5058.4z M1976,4880.4c533-107,953-480,1117-991c56-174,67-255,66-470c-1-161-5-212-22-293
		c-130-593-551-1016-1143-1149c-90-20-131-23-309-23s-219,3-309,23c-592,133-1012,555-1143,1149c-32,144-32,454,0,599
		c58,268,169,493,336,682c250,283,574,448,976,496C1623,4912.4,1883,4898.4,1976,4880.4z"/>
	<path class="st0" d="M1238,4172.4c-12-4-430-453-486-521l-27-34v-603c0-428,3-611,11-629c7-13,25-30,40-37c37-15,82,2,98,37
		c8,18,11,195,11,602v578l208,227l207,226h570c314,1,575-3,581-7c33-22,34-48,34-826c0-555,3-782,11-800c26-57,115-55,138,3
		c8,19,11,251,9,811c-3,853,1,796-60,887c-18,27-46,50-80,67l-52,26l-600-1C1520,4178.4,1245,4175.4,1238,4172.4z"/>
	<path class="st0" d="M1329,3927.4c-34-16-44-52-44-157c0-84-3-102-21-125c-20-25-24-26-124-26c-117,0-148-10-166-51
		c-15-37,2-82,37-98c33-15,206-14,256,1c56,17,121,78,148,140c18,40,25,77,28,151c5,109-6,148-44,166
		C1369,3941.4,1357,3941.4,1329,3927.4z"/>
	<path class="st0" d="M1168,3127.4c-12-6-27-23-34-39c-15-37,2-82,37-98s993-16,1028,0c55,26,55,112,0,138
		C2165,3143.4,1200,3142.4,1168,3127.4z"/>
	<path class="st0" d="M1168,2807.4c-12-6-27-23-34-39c-15-37,2-82,37-98s993-16,1028,0c55,26,55,112,0,138
		C2165,2823.4,1200,2822.4,1168,2807.4z"/>
	<path class="st0" d="M1168,2487.4c-12-6-27-23-34-39c-15-37,2-82,37-98s993-16,1028,0c55,26,55,112,0,138
		C2165,2503.4,1200,2502.4,1168,2487.4z"/>
	<path class="st0" d="M3150,2384.4c-54-53-63-41,429-535c249-250,459-465,465-477c7-14,8-30,2-45c-11-27-208-223-234-232
		c-10-3-28-1-40,5s-224,213-472,459c-247,246-460,451-473,455c-60,18-119-49-91-104c8-16,217-229,465-475c328-324,464-451,495-466
		c57-26,150-26,204-1c52,24,259,234,280,283c8,21,15,63,15,95c0,110-5,115-502,611c-413,411-456,452-486,452
		C3185,2409.4,3166,2401.4,3150,2384.4z"/>
</g>
</svg>
