<?xml version="1.0" encoding="utf-8"?>
<!-- Generator: Adobe Illustrator 24.3.0, SVG Export Plug-In . SVG Version: 6.00 Build 0)  -->
<svg version="1.1" id="Layer_1" xmlns="http://www.w3.org/2000/svg" xmlns:xlink="http://www.w3.org/1999/xlink" x="0px" y="0px"
	 viewBox="0 0 400 233.9" style="enable-background:new 0 0 400 233.9;" xml:space="preserve">
<style type="text/css">
	.st0{fill:#D0D5DA;}
</style>
<g id="Bicycle">
	<path class="st0" d="M80,163.9c-5.5,0.1-10-4.3-10-9.8c0-1.8,0.5-3.6,1.4-5.2L111,80.2c-9.8-4.2-20.3-6.3-31-6.3
		c-44.2,0-80,35.8-80,80c0,44.2,35.8,80,80,80s80-35.8,80-80c0-25-11.7-48.6-31.6-63.7l-39.7,68.7C86.9,162,83.6,163.9,80,163.9z"/>
	<path class="st0" d="M320,73.9c-10.7,0-21.2,2.1-31,6.3l39.7,68.7c1.8,3.1,1.8,6.9,0,10c-1.8,3.1-5.1,5-8.7,5h-79.4
		c5.5,43.8,45.5,74.9,89.4,69.4c43.8-5.5,74.9-45.5,69.4-89.4C394.3,103.9,360.3,73.9,320,73.9L320,73.9z"/>
	<path class="st0" d="M240.6,143.9h62.1l-31-53.7C254.5,103.2,243.3,122.5,240.6,143.9z"/>
	<path class="st0" d="M240.6,143.9h-12.4c-1.2-3.4-3-6.6-5.4-9.4L260,70l11.7,20.2c5.3-4.1,11.1-7.4,17.3-10L271.6,50l17.3-30h13.5
		c5.5,0,10-4.5,10-10s-4.5-10-10-10h-60c-5.5,0-10,4.5-10,10s4.5,10,10,10h23.4l-11.5,20H150V10c0.1-5.5-4.3-9.9-9.8-10
		c-0.1,0-0.1,0-0.2,0H80c-5.5,0-10,4.5-10,10s4.5,10,10,10h50v27.3l-18.9,32.9c6.2,2.6,12,6,17.3,10L140,70l37.3,64.5
		c-10.8,12.5-9.3,31.4,3.2,42.2c12.5,10.8,31.4,9.3,42.2-3.2c2.4-2.8,4.3-6.1,5.5-9.6h12.4C239.8,157.3,239.8,150.5,240.6,143.9
		L240.6,143.9z M205.5,124.4c-3.6-0.7-7.3-0.7-10.9,0L157.4,60h85.3L205.5,124.4z"/>
</g>
</svg>
