<?xml version="1.0" encoding="utf-8"?>
<!-- Generator: Adobe Illustrator 24.3.0, SVG Export Plug-In . SVG Version: 6.00 Build 0)  -->
<svg version="1.1" id="Layer_1" xmlns="http://www.w3.org/2000/svg" xmlns:xlink="http://www.w3.org/1999/xlink" x="0px" y="0px"
	 viewBox="0 0 48.9 50" style="enable-background:new 0 0 48.9 50;" xml:space="preserve">
<style type="text/css">
	.st0{fill:#D0D5DA;stroke:#D0D5DA;stroke-miterlimit:10;}
</style>
<g id="Layer_1_1_">
	<path class="st0" d="M4.4,7v42h34v-6h6V1h-34v6H4.4z M36.4,47h-30V9h4h19v7h7v27V47z M31.4,10.4L35,14h-3.6V10.4z M12.4,3h30v38h-4
		V14.6L30.8,7H12.4V3z"/>
	<rect x="10.4" y="20" class="st0" width="22" height="2"/>
	<rect x="10.4" y="26" class="st0" width="22" height="2"/>
	<rect x="10.4" y="32" class="st0" width="22" height="2"/>
	<rect x="10.4" y="40" class="st0" width="9" height="2"/>
	<rect x="23.4" y="40" class="st0" width="9" height="2"/>
	<rect x="17.4" y="14" class="st0" width="8" height="2"/>
</g>
</svg>
